<?xml version="1.0" encoding="UTF-8" standalone="no"?>
<!DOCTYPE svg PUBLIC "-//W3C//DTD SVG 1.1//EN"
 "http://www.w3.org/Graphics/SVG/1.1/DTD/svg11.dtd">
<!-- Generated by graphviz version 2.43.0 (0)
 -->
<!-- Title: HilbertbraneWorkflow Pages: 1 -->
<svg width="2152pt" height="61pt"
 viewBox="0.00 0.00 2152.18 61.00" xmlns="http://www.w3.org/2000/svg" xmlns:xlink="http://www.w3.org/1999/xlink">
<g id="graph0" class="graph" transform="scale(1 1) rotate(0) translate(4 57)">
<title>HilbertbraneWorkflow</title>
<polygon fill="#ffffff" stroke="transparent" points="-4,4 -4,-57 2148.18,-57 2148.18,4 -4,4"/>
<!-- start -->
<g id="node1" class="node">
<title>start</title>
<ellipse fill="#2ecc71" stroke="#27ae60" cx="29.9" cy="-26.5" rx="29.8" ry="18"/>
<text text-anchor="middle" x="29.9" y="-22.8" font-family="Helvetica,Arial,sans-serif" font-size="14.00">Start</text>
</g>
<!-- gen_path -->
<g id="node2" class="node">
<title>gen_path</title>
<polygon fill="#e8f4f8" stroke="#2980b9" points="246.79,-53 117.79,-53 117.79,0 246.79,0 246.79,-53"/>
<text text-anchor="middle" x="182.29" y="-37.8" font-family="Helvetica,Arial,sans-serif" font-size="14.00">1. Generate 3D</text>
<text text-anchor="middle" x="182.29" y="-22.8" font-family="Helvetica,Arial,sans-serif" font-size="14.00">Hilbert Curve Path</text>
<text text-anchor="middle" x="182.29" y="-7.8" font-family="Helvetica,Arial,sans-serif" font-size="14.00">(Compact Indexer)</text>
</g>
<!-- start&#45;&gt;gen_path -->
<g id="edge1" class="edge">
<title>start&#45;&gt;gen_path</title>
<path fill="none" stroke="#34495e" stroke-width="1.5" d="M59.9,-26.5C73.47,-26.5 90.32,-26.5 107.1,-26.5"/>
<polygon fill="#34495e" stroke="#34495e" stroke-width="1.5" points="107.51,-30 117.51,-26.5 107.51,-23 107.51,-30"/>
</g>
<!-- scale_ellipsoid -->
<g id="node3" class="node">
<title>scale_ellipsoid</title>
<polygon fill="#e8f4f8" stroke="#2980b9" points="459.79,-53 304.79,-53 304.79,0 459.79,0 459.79,-53"/>
<text text-anchor="middle" x="382.29" y="-37.8" font-family="Helvetica,Arial,sans-serif" font-size="14.00">2. Map Path to</text>
<text text-anchor="middle" x="382.29" y="-22.8" font-family="Helvetica,Arial,sans-serif" font-size="14.00">Ellipsoid Bounding Box</text>
<text text-anchor="middle" x="382.29" y="-7.8" font-family="Helvetica,Arial,sans-serif" font-size="14.00">(Brain Shape)</text>
</g>
<!-- gen_path&#45;&gt;scale_ellipsoid -->
<g id="edge2" class="edge">
<title>gen_path&#45;&gt;scale_ellipsoid</title>
<path fill="none" stroke="#34495e" stroke-width="1.5" d="M247.03,-26.5C262.06,-26.5 278.33,-26.5 294.18,-26.5"/>
<polygon fill="#34495e" stroke="#34495e" stroke-width="1.5" points="294.53,-30 304.53,-26.5 294.53,-23 294.53,-30"/>
</g>
<!-- spline -->
<g id="node4" class="node">
<title>spline</title>
<polygon fill="#e8f4f8" stroke="#2980b9" points="636.79,-53 517.79,-53 517.79,0 636.79,0 636.79,-53"/>
<text text-anchor="middle" x="577.29" y="-37.8" font-family="Helvetica,Arial,sans-serif" font-size="14.00">3. Fit Smooth</text>
<text text-anchor="middle" x="577.29" y="-22.8" font-family="Helvetica,Arial,sans-serif" font-size="14.00">Spline Centerline</text>
<text text-anchor="middle" x="577.29" y="-7.8" font-family="Helvetica,Arial,sans-serif" font-size="14.00">(PyVista)</text>
</g>
<!-- scale_ellipsoid&#45;&gt;spline -->
<g id="edge3" class="edge">
<title>scale_ellipsoid&#45;&gt;spline</title>
<path fill="none" stroke="#34495e" stroke-width="1.5" d="M459.85,-26.5C475.65,-26.5 492.19,-26.5 507.69,-26.5"/>
<polygon fill="#34495e" stroke="#34495e" stroke-width="1.5" points="507.7,-30 517.7,-26.5 507.7,-23 507.7,-30"/>
</g>
<!-- arclength -->
<g id="node5" class="node">
<title>arclength</title>
<polygon fill="#e8f4f8" stroke="#2980b9" points="841.79,-45.5 694.79,-45.5 694.79,-7.5 841.79,-7.5 841.79,-45.5"/>
<text text-anchor="middle" x="768.29" y="-30.3" font-family="Helvetica,Arial,sans-serif" font-size="14.00">4. Calculate</text>
<text text-anchor="middle" x="768.29" y="-15.3" font-family="Helvetica,Arial,sans-serif" font-size="14.00">Normalized Arclength</text>
</g>
<!-- spline&#45;&gt;arclength -->
<g id="edge4" class="edge">
<title>spline&#45;&gt;arclength</title>
<path fill="none" stroke="#34495e" stroke-width="1.5" d="M636.8,-26.5C651.83,-26.5 668.29,-26.5 684.3,-26.5"/>
<polygon fill="#34495e" stroke="#34495e" stroke-width="1.5" points="684.74,-30 694.74,-26.5 684.74,-23 684.74,-30"/>
</g>
<!-- pinch -->
<g id="node6" class="node">
<title>pinch</title>
<polygon fill="#e8f4f8" stroke="#2980b9" points="1108.79,-45.5 899.79,-45.5 899.79,-7.5 1108.79,-7.5 1108.79,-45.5"/>
<text text-anchor="middle" x="1004.29" y="-30.3" font-family="Helvetica,Arial,sans-serif" font-size="14.00">5. Apply Pinch Field</text>
<text text-anchor="middle" x="1004.29" y="-15.3" font-family="Helvetica,Arial,sans-serif" font-size="14.00">(Low&#45;freq Wobble + Harmonics)</text>
</g>
<!-- arclength&#45;&gt;pinch -->
<g id="edge5" class="edge">
<title>arclength&#45;&gt;pinch</title>
<path fill="none" stroke="#34495e" stroke-width="1.5" d="M842.05,-26.5C857.16,-26.5 873.43,-26.5 889.61,-26.5"/>
<polygon fill="#34495e" stroke="#34495e" stroke-width="1.5" points="889.66,-30 899.66,-26.5 889.66,-23 889.66,-30"/>
</g>
<!-- radius -->
<g id="node7" class="node">
<title>radius</title>
<polygon fill="#e8f4f8" stroke="#2980b9" points="1292.79,-53 1166.79,-53 1166.79,0 1292.79,0 1292.79,-53"/>
<text text-anchor="middle" x="1229.79" y="-37.8" font-family="Helvetica,Arial,sans-serif" font-size="14.00">6. Map Pinch to</text>
<text text-anchor="middle" x="1229.79" y="-22.8" font-family="Helvetica,Arial,sans-serif" font-size="14.00">Absolute Radius</text>
<text text-anchor="middle" x="1229.79" y="-7.8" font-family="Helvetica,Arial,sans-serif" font-size="14.00">(Sulci / Gyri limits)</text>
</g>
<!-- pinch&#45;&gt;radius -->
<g id="edge6" class="edge">
<title>pinch&#45;&gt;radius</title>
<path fill="none" stroke="#34495e" stroke-width="1.5" d="M1108.87,-26.5C1124.92,-26.5 1141.19,-26.5 1156.36,-26.5"/>
<polygon fill="#34495e" stroke="#34495e" stroke-width="1.5" points="1156.67,-30 1166.67,-26.5 1156.67,-23 1156.67,-30"/>
</g>
<!-- tube -->
<g id="node8" class="node">
<title>tube</title>
<polygon fill="#e8f4f8" stroke="#2980b9" points="1511.79,-53 1350.79,-53 1350.79,0 1511.79,0 1511.79,-53"/>
<text text-anchor="middle" x="1431.29" y="-37.8" font-family="Helvetica,Arial,sans-serif" font-size="14.00">7. Extrude Tube</text>
<text text-anchor="middle" x="1431.29" y="-22.8" font-family="Helvetica,Arial,sans-serif" font-size="14.00">Along Centerline</text>
<text text-anchor="middle" x="1431.29" y="-7.8" font-family="Helvetica,Arial,sans-serif" font-size="14.00">(vary_radius_by_scalar)</text>
</g>
<!-- radius&#45;&gt;tube -->
<g id="edge7" class="edge">
<title>radius&#45;&gt;tube</title>
<path fill="none" stroke="#34495e" stroke-width="1.5" d="M1292.82,-26.5C1307.98,-26.5 1324.5,-26.5 1340.66,-26.5"/>
<polygon fill="#34495e" stroke="#34495e" stroke-width="1.5" points="1340.66,-30 1350.66,-26.5 1340.66,-23 1340.66,-30"/>
</g>
<!-- decimate -->
<g id="node9" class="node">
<title>decimate</title>
<polygon fill="#e8f4f8" stroke="#2980b9" points="1722.79,-45.5 1569.79,-45.5 1569.79,-7.5 1722.79,-7.5 1722.79,-45.5"/>
<text text-anchor="middle" x="1646.29" y="-30.3" font-family="Helvetica,Arial,sans-serif" font-size="14.00">8. Decimate &amp; Smooth</text>
<text text-anchor="middle" x="1646.29" y="-15.3" font-family="Helvetica,Arial,sans-serif" font-size="14.00">(Reduce poly count)</text>
</g>
<!-- tube&#45;&gt;decimate -->
<g id="edge8" class="edge">
<title>tube&#45;&gt;decimate</title>
<path fill="none" stroke="#34495e" stroke-width="1.5" d="M1511.91,-26.5C1527.42,-26.5 1543.74,-26.5 1559.44,-26.5"/>
<polygon fill="#34495e" stroke="#34495e" stroke-width="1.5" points="1559.66,-30 1569.66,-26.5 1559.66,-23 1559.66,-30"/>
</g>
<!-- export -->
<g id="node10" class="node">
<title>export</title>
<path fill="#f1c40f" stroke="#f39c12" d="M1880.79,-41.23C1880.79,-43.03 1858.38,-44.5 1830.79,-44.5 1803.21,-44.5 1780.79,-43.03 1780.79,-41.23 1780.79,-41.23 1780.79,-11.77 1780.79,-11.77 1780.79,-9.97 1803.21,-8.5 1830.79,-8.5 1858.38,-8.5 1880.79,-9.97 1880.79,-11.77 1880.79,-11.77 1880.79,-41.23 1880.79,-41.23"/>
<path fill="none" stroke="#f39c12" d="M1880.79,-41.23C1880.79,-39.42 1858.38,-37.95 1830.79,-37.95 1803.21,-37.95 1780.79,-39.42 1780.79,-41.23"/>
<text text-anchor="middle" x="1830.79" y="-22.8" font-family="Helvetica,Arial,sans-serif" font-size="14.00">9. Export STL</text>
</g>
<!-- decimate&#45;&gt;export -->
<g id="edge9" class="edge">
<title>decimate&#45;&gt;export</title>
<path fill="none" stroke="#34495e" stroke-width="1.5" d="M1722.84,-26.5C1738.7,-26.5 1755.2,-26.5 1770.37,-26.5"/>
<polygon fill="#34495e" stroke="#34495e" stroke-width="1.5" points="1770.63,-30 1780.63,-26.5 1770.63,-23 1770.63,-30"/>
</g>
<!-- end -->
<g id="node11" class="node">
<title>end</title>
<ellipse fill="#e74c3c" stroke="#c0392b" cx="2041.49" cy="-26.5" rx="102.88" ry="18"/>
<text text-anchor="middle" x="2041.49" y="-22.8" font-family="Helvetica,Arial,sans-serif" font-size="14.00" fill="white">End (3D Print / Render)</text>
</g>
<!-- export&#45;&gt;end -->
<g id="edge10" class="edge">
<title>export&#45;&gt;end</title>
<path fill="none" stroke="#34495e" stroke-width="1.5" d="M1880.99,-26.5C1895.36,-26.5 1911.69,-26.5 1928.28,-26.5"/>
<polygon fill="#34495e" stroke="#34495e" stroke-width="1.5" points="1928.63,-30 1938.63,-26.5 1928.63,-23 1928.63,-30"/>
</g>
</g>
</svg>
