<?xml version="1.0" encoding="UTF-8" standalone="no"?>
<!DOCTYPE svg PUBLIC "-//W3C//DTD SVG 1.1//EN"
 "http://www.w3.org/Graphics/SVG/1.1/DTD/svg11.dtd">
<!-- Generated by graphviz version 2.43.0 (0)
 -->
<!-- Title: G Pages: 1 -->
<svg width="927pt" height="715pt"
 viewBox="0.00 0.00 926.60 714.85" xmlns="http://www.w3.org/2000/svg" xmlns:xlink="http://www.w3.org/1999/xlink">
<g id="graph0" class="graph" transform="scale(1 1) rotate(0) translate(28.8 686.05)">
<title>G</title>
<polygon fill="#0d1117" stroke="transparent" points="-28.8,28.8 -28.8,-686.05 897.8,-686.05 897.8,28.8 -28.8,28.8"/>
<text text-anchor="middle" x="434.5" y="-642.05" font-family="Helvetica,Arial,sans-serif" font-size="14.00" fill="white">Hilbert Curve: Fractal Space&#45;Filling Theory</text>
<g id="clust1" class="cluster">
<title>cluster_dim</title>
<path fill="#000d1a" stroke="#00bfff" d="M323,-129.25C323,-129.25 517,-129.25 517,-129.25 523,-129.25 529,-135.25 529,-141.25 529,-141.25 529,-398.25 529,-398.25 529,-404.25 523,-410.25 517,-410.25 517,-410.25 323,-410.25 323,-410.25 317,-410.25 311,-404.25 311,-398.25 311,-398.25 311,-141.25 311,-141.25 311,-135.25 317,-129.25 323,-129.25"/>
<text text-anchor="middle" x="420" y="-396.65" font-family="Helvetica,Arial,sans-serif" font-size="12.00" fill="#00bfff">Dimensionality Progression</text>
</g>
<g id="clust2" class="cluster">
<title>cluster_orders</title>
<path fill="#000d1a" stroke="#00bfff" d="M549,-233.25C549,-233.25 621,-233.25 621,-233.25 627,-233.25 633,-239.25 633,-245.25 633,-245.25 633,-614.25 633,-614.25 633,-620.25 627,-626.25 621,-626.25 621,-626.25 549,-626.25 549,-626.25 543,-626.25 537,-620.25 537,-614.25 537,-614.25 537,-245.25 537,-245.25 537,-239.25 543,-233.25 549,-233.25"/>
<text text-anchor="middle" x="585" y="-612.65" font-family="Helvetica,Arial,sans-serif" font-size="12.00" fill="#00bfff">Fractal Orders</text>
</g>
<g id="clust3" class="cluster">
<title>cluster_props</title>
<path fill="#000d1a" stroke="#00bfff" d="M20,-8C20,-8 849,-8 849,-8 855,-8 861,-14 861,-20 861,-20 861,-78.25 861,-78.25 861,-84.25 855,-90.25 849,-90.25 849,-90.25 20,-90.25 20,-90.25 14,-90.25 8,-84.25 8,-78.25 8,-78.25 8,-20 8,-20 8,-14 14,-8 20,-8"/>
<text text-anchor="middle" x="434.5" y="-76.65" font-family="Helvetica,Arial,sans-serif" font-size="12.00" fill="#00bfff">Key Mathematical Properties</text>
</g>
<!-- d1 -->
<g id="node1" class="node">
<title>d1</title>
<path fill="#001a2e" stroke="#00bfff" stroke-width="1.8" d="M458.5,-381.25C458.5,-381.25 381.5,-381.25 381.5,-381.25 375.5,-381.25 369.5,-375.25 369.5,-369.25 369.5,-369.25 369.5,-357.25 369.5,-357.25 369.5,-351.25 375.5,-345.25 381.5,-345.25 381.5,-345.25 458.5,-345.25 458.5,-345.25 464.5,-345.25 470.5,-351.25 470.5,-357.25 470.5,-357.25 470.5,-369.25 470.5,-369.25 470.5,-375.25 464.5,-381.25 458.5,-381.25"/>
<text text-anchor="middle" x="420" y="-360.45" font-family="Helvetica,Arial,sans-serif" font-size="11.00" fill="#00bfff">1D Line Segment</text>
</g>
<!-- d2 -->
<g id="node2" class="node">
<title>d2</title>
<path fill="#001a2e" stroke="#00bfff" stroke-width="1.8" d="M476.5,-277.25C476.5,-277.25 363.5,-277.25 363.5,-277.25 357.5,-277.25 351.5,-271.25 351.5,-265.25 351.5,-265.25 351.5,-253.25 351.5,-253.25 351.5,-247.25 357.5,-241.25 363.5,-241.25 363.5,-241.25 476.5,-241.25 476.5,-241.25 482.5,-241.25 488.5,-247.25 488.5,-253.25 488.5,-253.25 488.5,-265.25 488.5,-265.25 488.5,-271.25 482.5,-277.25 476.5,-277.25"/>
<text text-anchor="middle" x="420" y="-262.45" font-family="Helvetica,Arial,sans-serif" font-size="11.00" fill="#00bfff">2D Space&#45;Filling Curve</text>
<text text-anchor="middle" x="420" y="-250.45" font-family="Helvetica,Arial,sans-serif" font-size="11.00" fill="#00bfff">(Order N fills unit square)</text>
</g>
<!-- d1&#45;&gt;d2 -->
<g id="edge1" class="edge">
<title>d1&#45;&gt;d2</title>
<path fill="none" stroke="#444466" stroke-width="1.2" d="M420,-344.95C420,-329.18 420,-305.62 420,-287.35"/>
<polygon fill="#444466" stroke="#444466" stroke-width="1.2" points="423.5,-287.3 420,-277.3 416.5,-287.3 423.5,-287.3"/>
<text text-anchor="middle" x="435.5" y="-309.05" font-family="Helvetica,Arial,sans-serif" font-size="9.00" fill="#aaaacc">extrude</text>
</g>
<!-- d3 -->
<g id="node3" class="node">
<title>d3</title>
<path fill="#001a2e" stroke="#00bfff" stroke-width="1.8" d="M508.5,-173.25C508.5,-173.25 331.5,-173.25 331.5,-173.25 325.5,-173.25 319.5,-167.25 319.5,-161.25 319.5,-161.25 319.5,-149.25 319.5,-149.25 319.5,-143.25 325.5,-137.25 331.5,-137.25 331.5,-137.25 508.5,-137.25 508.5,-137.25 514.5,-137.25 520.5,-143.25 520.5,-149.25 520.5,-149.25 520.5,-161.25 520.5,-161.25 520.5,-167.25 514.5,-173.25 508.5,-173.25"/>
<text text-anchor="middle" x="420" y="-158.45" font-family="Helvetica,Arial,sans-serif" font-size="11.00" fill="#00bfff">3D Hilbert Volume</text>
<text text-anchor="middle" x="420" y="-146.45" font-family="Helvetica,Arial,sans-serif" font-size="11.00" fill="#00bfff">(fills unit cube without self&#45;intersection)</text>
</g>
<!-- d2&#45;&gt;d3 -->
<g id="edge2" class="edge">
<title>d2&#45;&gt;d3</title>
<path fill="none" stroke="#444466" stroke-width="1.2" d="M420,-240.95C420,-225.18 420,-201.62 420,-183.35"/>
<polygon fill="#444466" stroke="#444466" stroke-width="1.2" points="423.5,-183.3 420,-173.3 416.5,-183.3 423.5,-183.3"/>
<text text-anchor="middle" x="435.5" y="-205.05" font-family="Helvetica,Arial,sans-serif" font-size="9.00" fill="#aaaacc">extrude</text>
</g>
<!-- p1 -->
<g id="node8" class="node">
<title>p1</title>
<ellipse fill="#001a2e" stroke="#00bfff" stroke-width="1.8" cx="134" cy="-38.63" rx="118.17" ry="22.76"/>
<text text-anchor="middle" x="134" y="-41.83" font-family="Helvetica,Arial,sans-serif" font-size="11.00" fill="#00bfff">Space&#45;Filling Property</text>
<text text-anchor="middle" x="134" y="-29.83" font-family="Helvetica,Arial,sans-serif" font-size="11.00" fill="#00bfff">(visits every voxel exactly once)</text>
</g>
<!-- d3&#45;&gt;p1 -->
<g id="edge6" class="edge">
<title>d3&#45;&gt;p1</title>
<path fill="none" stroke="#444466" stroke-width="1.2" d="M377.49,-137.22C328.46,-117.57 247.57,-85.14 192.59,-63.11"/>
<polygon fill="#444466" stroke="#444466" stroke-width="1.2" points="193.57,-59.73 182.98,-59.26 190.96,-66.23 193.57,-59.73"/>
<text text-anchor="middle" x="317" y="-101.05" font-family="Helvetica,Arial,sans-serif" font-size="9.00" fill="#aaaacc">implies</text>
</g>
<!-- p2 -->
<g id="node9" class="node">
<title>p2</title>
<ellipse fill="#001a2e" stroke="#00bfff" stroke-width="1.8" cx="420" cy="-38.63" rx="124.4" ry="22.76"/>
<text text-anchor="middle" x="420" y="-41.83" font-family="Helvetica,Arial,sans-serif" font-size="11.00" fill="#00bfff">Self&#45;Similarity</text>
<text text-anchor="middle" x="420" y="-29.83" font-family="Helvetica,Arial,sans-serif" font-size="11.00" fill="#00bfff">(each sub&#45;curve is a scaled copy)</text>
</g>
<!-- d3&#45;&gt;p2 -->
<g id="edge7" class="edge">
<title>d3&#45;&gt;p2</title>
<path fill="none" stroke="#444466" stroke-width="1.2" d="M420,-136.85C420,-119.59 420,-92.76 420,-71.66"/>
<polygon fill="#444466" stroke="#444466" stroke-width="1.2" points="423.5,-71.52 420,-61.52 416.5,-71.52 423.5,-71.52"/>
<text text-anchor="middle" x="435" y="-101.05" font-family="Helvetica,Arial,sans-serif" font-size="9.00" fill="#aaaacc">implies</text>
</g>
<!-- p3 -->
<g id="node10" class="node">
<title>p3</title>
<ellipse fill="#001a2e" stroke="#00bfff" stroke-width="1.8" cx="720" cy="-38.63" rx="132.87" ry="22.76"/>
<text text-anchor="middle" x="720" y="-41.83" font-family="Helvetica,Arial,sans-serif" font-size="11.00" fill="#00bfff">Locality Preservation</text>
<text text-anchor="middle" x="720" y="-29.83" font-family="Helvetica,Arial,sans-serif" font-size="11.00" fill="#00bfff">(nearby indices → nearby positions)</text>
</g>
<!-- d3&#45;&gt;p3 -->
<g id="edge8" class="edge">
<title>d3&#45;&gt;p3</title>
<path fill="none" stroke="#444466" stroke-width="1.2" d="M464.59,-137.22C516,-117.57 600.81,-85.17 658.48,-63.13"/>
<polygon fill="#444466" stroke="#444466" stroke-width="1.2" points="659.75,-66.39 667.85,-59.56 657.25,-59.86 659.75,-66.39"/>
<text text-anchor="middle" x="576" y="-101.05" font-family="Helvetica,Arial,sans-serif" font-size="9.00" fill="#aaaacc">implies</text>
</g>
<!-- o1 -->
<g id="node4" class="node">
<title>o1</title>
<path fill="#001a2e" stroke="#00bfff" stroke-width="1.8" d="M604,-597.25C604,-597.25 572,-597.25 572,-597.25 566,-597.25 560,-591.25 560,-585.25 560,-585.25 560,-573.25 560,-573.25 560,-567.25 566,-561.25 572,-561.25 572,-561.25 604,-561.25 604,-561.25 610,-561.25 616,-567.25 616,-573.25 616,-573.25 616,-585.25 616,-585.25 616,-591.25 610,-597.25 604,-597.25"/>
<text text-anchor="middle" x="588" y="-582.45" font-family="Helvetica,Arial,sans-serif" font-size="11.00" fill="#00bfff">Order 1</text>
<text text-anchor="middle" x="588" y="-570.45" font-family="Helvetica,Arial,sans-serif" font-size="11.00" fill="#00bfff">8 voxels</text>
</g>
<!-- o2 -->
<g id="node5" class="node">
<title>o2</title>
<path fill="#001a2e" stroke="#00bfff" stroke-width="1.8" d="M607,-493.25C607,-493.25 569,-493.25 569,-493.25 563,-493.25 557,-487.25 557,-481.25 557,-481.25 557,-469.25 557,-469.25 557,-463.25 563,-457.25 569,-457.25 569,-457.25 607,-457.25 607,-457.25 613,-457.25 619,-463.25 619,-469.25 619,-469.25 619,-481.25 619,-481.25 619,-487.25 613,-493.25 607,-493.25"/>
<text text-anchor="middle" x="588" y="-478.45" font-family="Helvetica,Arial,sans-serif" font-size="11.00" fill="#00bfff">Order 2</text>
<text text-anchor="middle" x="588" y="-466.45" font-family="Helvetica,Arial,sans-serif" font-size="11.00" fill="#00bfff">64 voxels</text>
</g>
<!-- o1&#45;&gt;o2 -->
<g id="edge3" class="edge">
<title>o1&#45;&gt;o2</title>
<path fill="none" stroke="#444466" stroke-width="1.2" d="M588,-560.95C588,-545.18 588,-521.62 588,-503.35"/>
<polygon fill="#444466" stroke="#444466" stroke-width="1.2" points="591.5,-503.3 588,-493.3 584.5,-503.3 591.5,-503.3"/>
<text text-anchor="middle" x="606.5" y="-525.05" font-family="Helvetica,Arial,sans-serif" font-size="9.00" fill="#aaaacc">2× depth</text>
</g>
<!-- o3 -->
<g id="node6" class="node">
<title>o3</title>
<path fill="#001a2e" stroke="#00bfff" stroke-width="1.8" d="M610,-381.25C610,-381.25 566,-381.25 566,-381.25 560,-381.25 554,-375.25 554,-369.25 554,-369.25 554,-357.25 554,-357.25 554,-351.25 560,-345.25 566,-345.25 566,-345.25 610,-345.25 610,-345.25 616,-345.25 622,-351.25 622,-357.25 622,-357.25 622,-369.25 622,-369.25 622,-375.25 616,-381.25 610,-381.25"/>
<text text-anchor="middle" x="588" y="-366.45" font-family="Helvetica,Arial,sans-serif" font-size="11.00" fill="#00bfff">Order 3</text>
<text text-anchor="middle" x="588" y="-354.45" font-family="Helvetica,Arial,sans-serif" font-size="11.00" fill="#00bfff">512 voxels</text>
</g>
<!-- o2&#45;&gt;o3 -->
<g id="edge4" class="edge">
<title>o2&#45;&gt;o3</title>
<path fill="none" stroke="#444466" stroke-width="1.2" d="M588,-457.07C588,-439.47 588,-411.86 588,-391.33"/>
<polygon fill="#444466" stroke="#444466" stroke-width="1.2" points="591.5,-391.32 588,-381.32 584.5,-391.32 591.5,-391.32"/>
<text text-anchor="middle" x="606.5" y="-421.05" font-family="Helvetica,Arial,sans-serif" font-size="9.00" fill="#aaaacc">2× depth</text>
</g>
<!-- o4 -->
<g id="node7" class="node">
<title>o4</title>
<path fill="#001a2e" stroke="#00bfff" stroke-width="1.8" d="M610,-277.25C610,-277.25 560,-277.25 560,-277.25 554,-277.25 548,-271.25 548,-265.25 548,-265.25 548,-253.25 548,-253.25 548,-247.25 554,-241.25 560,-241.25 560,-241.25 610,-241.25 610,-241.25 616,-241.25 622,-247.25 622,-253.25 622,-253.25 622,-265.25 622,-265.25 622,-271.25 616,-277.25 610,-277.25"/>
<text text-anchor="middle" x="585" y="-262.45" font-family="Helvetica,Arial,sans-serif" font-size="11.00" fill="#00bfff">Order 4</text>
<text text-anchor="middle" x="585" y="-250.45" font-family="Helvetica,Arial,sans-serif" font-size="11.00" fill="#00bfff">4096 voxels</text>
</g>
<!-- o3&#45;&gt;o4 -->
<g id="edge5" class="edge">
<title>o3&#45;&gt;o4</title>
<path fill="none" stroke="#444466" stroke-width="1.2" d="M587.49,-344.95C587.03,-329.18 586.33,-305.62 585.8,-287.35"/>
<polygon fill="#444466" stroke="#444466" stroke-width="1.2" points="589.29,-287.19 585.5,-277.3 582.3,-287.4 589.29,-287.19"/>
<text text-anchor="middle" x="604.5" y="-309.05" font-family="Helvetica,Arial,sans-serif" font-size="9.00" fill="#aaaacc">2× depth</text>
</g>
<!-- o4&#45;&gt;d3 -->
<g id="edge9" class="edge">
<title>o4&#45;&gt;d3</title>
<path fill="none" stroke="#334455" stroke-width="1.2" stroke-dasharray="5,2" d="M557.38,-241.18C529.66,-224.05 486.81,-197.55 456.34,-178.72"/>
<polygon fill="#334455" stroke="#334455" stroke-width="1.2" points="458.05,-175.66 447.71,-173.38 454.37,-181.62 458.05,-175.66"/>
<text text-anchor="middle" x="553.5" y="-205.05" font-family="Helvetica,Arial,sans-serif" font-size="9.00" fill="#778899">used in HilbertBrain.py</text>
</g>
</g>
</svg>
