<?xml version="1.0" encoding="UTF-8" standalone="no"?>
<!DOCTYPE svg PUBLIC "-//W3C//DTD SVG 1.1//EN"
 "http://www.w3.org/Graphics/SVG/1.1/DTD/svg11.dtd">
<!-- Generated by graphviz version 2.43.0 (0)
 -->
<!-- Title: G Pages: 1 -->
<svg width="178pt" height="283pt"
 viewBox="0.00 0.00 178.28 283.00" xmlns="http://www.w3.org/2000/svg" xmlns:xlink="http://www.w3.org/1999/xlink">
<g id="graph0" class="graph" transform="scale(1 1) rotate(0) translate(4 279)">
<title>G</title>
<polygon fill="white" stroke="transparent" points="-4,4 -4,-279 174.28,-279 174.28,4 -4,4"/>
<text text-anchor="middle" x="85.14" y="-7.8" font-family="Times,serif" font-size="14.00">PyVista Mesh Generation</text>
<!-- Centerline Points -->
<g id="node1" class="node">
<title>Centerline Points</title>
<ellipse fill="none" stroke="black" cx="85.14" cy="-257" rx="71.49" ry="18"/>
<text text-anchor="middle" x="85.14" y="-253.3" font-family="Times,serif" font-size="14.00">Centerline Points</text>
</g>
<!-- Spline Interpolation -->
<g id="node2" class="node">
<title>Spline Interpolation</title>
<ellipse fill="none" stroke="black" cx="85.14" cy="-185" rx="81.49" ry="18"/>
<text text-anchor="middle" x="85.14" y="-181.3" font-family="Times,serif" font-size="14.00">Spline Interpolation</text>
</g>
<!-- Centerline Points&#45;&gt;Spline Interpolation -->
<g id="edge1" class="edge">
<title>Centerline Points&#45;&gt;Spline Interpolation</title>
<path fill="none" stroke="black" d="M85.14,-238.7C85.14,-230.98 85.14,-221.71 85.14,-213.11"/>
<polygon fill="black" stroke="black" points="88.64,-213.1 85.14,-203.1 81.64,-213.1 88.64,-213.1"/>
</g>
<!-- Varying Radius Tube -->
<g id="node3" class="node">
<title>Varying Radius Tube</title>
<ellipse fill="none" stroke="black" cx="85.14" cy="-113" rx="85.29" ry="18"/>
<text text-anchor="middle" x="85.14" y="-109.3" font-family="Times,serif" font-size="14.00">Varying Radius Tube</text>
</g>
<!-- Spline Interpolation&#45;&gt;Varying Radius Tube -->
<g id="edge2" class="edge">
<title>Spline Interpolation&#45;&gt;Varying Radius Tube</title>
<path fill="none" stroke="black" d="M85.14,-166.7C85.14,-158.98 85.14,-149.71 85.14,-141.11"/>
<polygon fill="black" stroke="black" points="88.64,-141.1 85.14,-131.1 81.64,-141.1 88.64,-141.1"/>
</g>
<!-- Triangulation -->
<g id="node4" class="node">
<title>Triangulation</title>
<ellipse fill="none" stroke="black" cx="85.14" cy="-41" rx="58.49" ry="18"/>
<text text-anchor="middle" x="85.14" y="-37.3" font-family="Times,serif" font-size="14.00">Triangulation</text>
</g>
<!-- Varying Radius Tube&#45;&gt;Triangulation -->
<g id="edge3" class="edge">
<title>Varying Radius Tube&#45;&gt;Triangulation</title>
<path fill="none" stroke="black" d="M85.14,-94.7C85.14,-86.98 85.14,-77.71 85.14,-69.11"/>
<polygon fill="black" stroke="black" points="88.64,-69.1 85.14,-59.1 81.64,-69.1 88.64,-69.1"/>
</g>
</g>
</svg>
