<?xml version="1.0" encoding="UTF-8" standalone="no"?>
<!DOCTYPE svg PUBLIC "-//W3C//DTD SVG 1.1//EN"
 "http://www.w3.org/Graphics/SVG/1.1/DTD/svg11.dtd">
<!-- Generated by graphviz version 2.43.0 (0)
 -->
<!-- Title: G Pages: 1 -->
<svg width="1035pt" height="863pt"
 viewBox="0.00 0.00 1034.60 863.08" xmlns="http://www.w3.org/2000/svg" xmlns:xlink="http://www.w3.org/1999/xlink">
<g id="graph0" class="graph" transform="scale(1 1) rotate(0) translate(28.8 834.28)">
<title>G</title>
<polygon fill="#ffffff" stroke="transparent" points="-28.8,28.8 -28.8,-834.28 1005.8,-834.28 1005.8,28.8 -28.8,28.8"/>
<text text-anchor="middle" x="488.5" y="-790.28" font-family="Helvetica,Arial,sans-serif" font-size="14.00">Sulcal Pinch Field: Harmonic + Perlin Modulation</text>
<g id="clust1" class="cluster">
<title>cluster_harm</title>
<path fill="#fdf2e9" stroke="#e67e22" d="M20,-478C20,-478 735,-478 735,-478 741,-478 747,-484 747,-490 747,-490 747,-659.23 747,-659.23 747,-665.23 741,-671.23 735,-671.23 735,-671.23 20,-671.23 20,-671.23 14,-671.23 8,-665.23 8,-659.23 8,-659.23 8,-490 8,-490 8,-484 14,-478 20,-478"/>
<text text-anchor="middle" x="377.5" y="-657.63" font-family="Helvetica,Arial,sans-serif" font-size="12.00">Harmonic Components</text>
</g>
<g id="clust2" class="cluster">
<title>cluster_norm</title>
<path fill="#fdf2e9" stroke="#e67e22" d="M315,-290C315,-290 475,-290 475,-290 481,-290 487,-296 487,-302 487,-302 487,-445 487,-445 487,-451 481,-457 475,-457 475,-457 315,-457 315,-457 309,-457 303,-451 303,-445 303,-445 303,-302 303,-302 303,-296 309,-290 315,-290"/>
<text text-anchor="middle" x="395" y="-443.4" font-family="Helvetica,Arial,sans-serif" font-size="12.00">Normalization</text>
</g>
<g id="clust3" class="cluster">
<title>cluster_perlin</title>
<path fill="#fdf2e9" stroke="#e67e22" d="M781,-580.49C781,-580.49 957,-580.49 957,-580.49 963,-580.49 969,-586.49 969,-592.49 969,-592.49 969,-762.48 969,-762.48 969,-768.48 963,-774.48 957,-774.48 957,-774.48 781,-774.48 781,-774.48 775,-774.48 769,-768.48 769,-762.48 769,-762.48 769,-592.49 769,-592.49 769,-586.49 775,-580.49 781,-580.49"/>
<text text-anchor="middle" x="869" y="-760.88" font-family="Helvetica,Arial,sans-serif" font-size="12.00">Perlin Noise Overlay (HilbertGyri3)</text>
</g>
<g id="clust4" class="cluster">
<title>cluster_out</title>
<path fill="#fdf2e9" stroke="#e67e22" d="M282,-8C282,-8 508,-8 508,-8 514,-8 520,-14 520,-20 520,-20 520,-257 520,-257 520,-263 514,-269 508,-269 508,-269 282,-269 282,-269 276,-269 270,-263 270,-257 270,-257 270,-20 270,-20 270,-14 276,-8 282,-8"/>
<text text-anchor="middle" x="395" y="-255.4" font-family="Helvetica,Arial,sans-serif" font-size="12.00">Radius Output</text>
</g>
<!-- h1 -->
<g id="node1" class="node">
<title>h1</title>
<ellipse fill="#fad7a0" stroke="#e67e22" stroke-width="1.5" cx="639" cy="-611.11" rx="100.32" ry="31.23"/>
<text text-anchor="middle" x="639" y="-620.31" font-family="Helvetica,Arial,sans-serif" font-size="11.00">Primary Harmonic</text>
<text text-anchor="middle" x="639" y="-608.31" font-family="Helvetica,Arial,sans-serif" font-size="11.00">w1×(1&#45;cos(2π·k1·t+φ1))/2</text>
<text text-anchor="middle" x="639" y="-596.31" font-family="Helvetica,Arial,sans-serif" font-size="11.00">(k1=7..9, w1=1.0)</text>
</g>
<!-- hsum -->
<g id="node4" class="node">
<title>hsum</title>
<ellipse fill="#fad7a0" stroke="#e67e22" stroke-width="1.5" cx="395" cy="-504" rx="57.25" ry="18"/>
<text text-anchor="middle" x="395" y="-501.2" font-family="Helvetica,Arial,sans-serif" font-size="11.00">Sum → P(t) raw</text>
</g>
<!-- h1&#45;&gt;hsum -->
<g id="edge1" class="edge">
<title>h1&#45;&gt;hsum</title>
<path fill="none" stroke="#555555" stroke-width="1.2" d="M581.79,-585.47C537.33,-566.31 476.68,-540.19 436.71,-522.97"/>
<polygon fill="#555555" stroke="#555555" stroke-width="1.2" points="438.09,-519.75 427.52,-519.01 435.32,-526.18 438.09,-519.75"/>
</g>
<!-- h2 -->
<g id="node2" class="node">
<title>h2</title>
<ellipse fill="#fad7a0" stroke="#e67e22" stroke-width="1.5" cx="395" cy="-611.11" rx="100.32" ry="31.23"/>
<text text-anchor="middle" x="395" y="-620.31" font-family="Helvetica,Arial,sans-serif" font-size="11.00">Secondary Harmonic</text>
<text text-anchor="middle" x="395" y="-608.31" font-family="Helvetica,Arial,sans-serif" font-size="11.00">w2×(1&#45;cos(2π·k2·t+φ2))/2</text>
<text text-anchor="middle" x="395" y="-596.31" font-family="Helvetica,Arial,sans-serif" font-size="11.00">(k2=13..17, w2=0.35)</text>
</g>
<!-- h2&#45;&gt;hsum -->
<g id="edge2" class="edge">
<title>h2&#45;&gt;hsum</title>
<path fill="none" stroke="#555555" stroke-width="1.2" d="M395,-579.99C395,-565.01 395,-547.02 395,-532.42"/>
<polygon fill="#555555" stroke="#555555" stroke-width="1.2" points="398.5,-532.03 395,-522.03 391.5,-532.03 398.5,-532.03"/>
</g>
<!-- h3 -->
<g id="node3" class="node">
<title>h3</title>
<ellipse fill="#fad7a0" stroke="#e67e22" stroke-width="1.5" cx="134" cy="-611.11" rx="118.17" ry="22.76"/>
<text text-anchor="middle" x="134" y="-614.31" font-family="Helvetica,Arial,sans-serif" font-size="11.00">Low&#45;freq Wobble</text>
<text text-anchor="middle" x="134" y="-602.31" font-family="Helvetica,Arial,sans-serif" font-size="11.00">wobble×(1&#45;cos(2π·1.2·t+0.7))/2</text>
</g>
<!-- h3&#45;&gt;hsum -->
<g id="edge3" class="edge">
<title>h3&#45;&gt;hsum</title>
<path fill="none" stroke="#555555" stroke-width="1.2" d="M182.79,-590.47C231.27,-570.94 304.94,-541.27 351.49,-522.52"/>
<polygon fill="#555555" stroke="#555555" stroke-width="1.2" points="353.03,-525.68 361,-518.69 350.41,-519.18 353.03,-525.68"/>
</g>
<!-- n1 -->
<g id="node5" class="node">
<title>n1</title>
<ellipse fill="#fad7a0" stroke="#e67e22" stroke-width="1.5" cx="395" cy="-410" rx="84.38" ry="18"/>
<text text-anchor="middle" x="395" y="-407.2" font-family="Helvetica,Arial,sans-serif" font-size="11.00">P &#45;= P.min(); P /= P.max()</text>
</g>
<!-- hsum&#45;&gt;n1 -->
<g id="edge8" class="edge">
<title>hsum&#45;&gt;n1</title>
<path fill="none" stroke="#555555" stroke-width="1.2" d="M395,-485.7C395,-472.46 395,-453.95 395,-438.66"/>
<polygon fill="#555555" stroke="#555555" stroke-width="1.2" points="398.5,-438.23 395,-428.23 391.5,-438.23 398.5,-438.23"/>
</g>
<!-- n2 -->
<g id="node6" class="node">
<title>n2</title>
<ellipse fill="#fad7a0" stroke="#e67e22" stroke-width="1.5" cx="395" cy="-316" rx="76.94" ry="18"/>
<text text-anchor="middle" x="395" y="-313.2" font-family="Helvetica,Arial,sans-serif" font-size="11.00">P(t) normalized ∈ [0,1]</text>
</g>
<!-- n1&#45;&gt;n2 -->
<g id="edge4" class="edge">
<title>n1&#45;&gt;n2</title>
<path fill="none" stroke="#555555" stroke-width="1.2" d="M395,-391.7C395,-378.46 395,-359.95 395,-344.66"/>
<polygon fill="#555555" stroke="#555555" stroke-width="1.2" points="398.5,-344.23 395,-334.23 391.5,-344.23 398.5,-344.23"/>
</g>
<!-- ro1 -->
<g id="node9" class="node">
<title>ro1</title>
<ellipse fill="#fad7a0" stroke="#e67e22" stroke-width="1.5" cx="395" cy="-222" rx="116.82" ry="18"/>
<text text-anchor="middle" x="395" y="-219.2" font-family="Helvetica,Arial,sans-serif" font-size="11.00">radius_abs = R×(1 &#45; SulcusScale×P)</text>
</g>
<!-- n2&#45;&gt;ro1 -->
<g id="edge9" class="edge">
<title>n2&#45;&gt;ro1</title>
<path fill="none" stroke="#555555" stroke-width="1.2" d="M395,-297.7C395,-284.46 395,-265.95 395,-250.66"/>
<polygon fill="#555555" stroke="#555555" stroke-width="1.2" points="398.5,-250.23 395,-240.23 391.5,-250.23 398.5,-250.23"/>
</g>
<!-- pn1 -->
<g id="node7" class="node">
<title>pn1</title>
<ellipse fill="#fad7a0" stroke="#e67e22" stroke-width="1.5" cx="869" cy="-722.85" rx="88.28" ry="22.76"/>
<text text-anchor="middle" x="869" y="-726.05" font-family="Helvetica,Arial,sans-serif" font-size="11.00">noise.pnoise1(t × freq)</text>
<text text-anchor="middle" x="869" y="-714.05" font-family="Helvetica,Arial,sans-serif" font-size="11.00">→ per&#45;point offset</text>
</g>
<!-- pn2 -->
<g id="node8" class="node">
<title>pn2</title>
<ellipse fill="#fad7a0" stroke="#e67e22" stroke-width="1.5" cx="869" cy="-611.11" rx="86.03" ry="22.76"/>
<text text-anchor="middle" x="869" y="-614.31" font-family="Helvetica,Arial,sans-serif" font-size="11.00">Add to centerline XYZ</text>
<text text-anchor="middle" x="869" y="-602.31" font-family="Helvetica,Arial,sans-serif" font-size="11.00">(organic folding)</text>
</g>
<!-- pn1&#45;&gt;pn2 -->
<g id="edge5" class="edge">
<title>pn1&#45;&gt;pn2</title>
<path fill="none" stroke="#555555" stroke-width="1.2" d="M869,-700.17C869,-684.09 869,-661.91 869,-643.84"/>
<polygon fill="#555555" stroke="#555555" stroke-width="1.2" points="872.5,-643.75 869,-633.75 865.5,-643.75 872.5,-643.75"/>
</g>
<!-- ro2 -->
<g id="node10" class="node">
<title>ro2</title>
<ellipse fill="#fad7a0" stroke="#e67e22" stroke-width="1.5" cx="395" cy="-128" rx="114.71" ry="18"/>
<text text-anchor="middle" x="395" y="-125.2" font-family="Helvetica,Arial,sans-serif" font-size="11.00">np.clip(radius_abs, R×0.25, R×1.15)</text>
</g>
<!-- ro1&#45;&gt;ro2 -->
<g id="edge6" class="edge">
<title>ro1&#45;&gt;ro2</title>
<path fill="none" stroke="#555555" stroke-width="1.2" d="M395,-203.7C395,-190.46 395,-171.95 395,-156.66"/>
<polygon fill="#555555" stroke="#555555" stroke-width="1.2" points="398.5,-156.23 395,-146.23 391.5,-156.23 398.5,-156.23"/>
</g>
<!-- ro3 -->
<g id="node11" class="node">
<title>ro3</title>
<path fill="#fad7a0" stroke="#e67e22" stroke-width="1.5" d="M454.5,-48.73C454.5,-50.53 427.83,-52 395,-52 362.17,-52 335.5,-50.53 335.5,-48.73 335.5,-48.73 335.5,-19.27 335.5,-19.27 335.5,-17.47 362.17,-16 395,-16 427.83,-16 454.5,-17.47 454.5,-19.27 454.5,-19.27 454.5,-48.73 454.5,-48.73"/>
<path fill="none" stroke="#e67e22" stroke-width="1.5" d="M454.5,-48.73C454.5,-46.92 427.83,-45.45 395,-45.45 362.17,-45.45 335.5,-46.92 335.5,-48.73"/>
<text text-anchor="middle" x="395" y="-31.2" font-family="Helvetica,Arial,sans-serif" font-size="11.00">per&#45;point radius array</text>
</g>
<!-- ro2&#45;&gt;ro3 -->
<g id="edge7" class="edge">
<title>ro2&#45;&gt;ro3</title>
<path fill="none" stroke="#555555" stroke-width="1.2" d="M395,-109.7C395,-96.46 395,-77.95 395,-62.66"/>
<polygon fill="#555555" stroke="#555555" stroke-width="1.2" points="398.5,-62.23 395,-52.23 391.5,-62.23 398.5,-62.23"/>
</g>
<!-- phases -->
<g id="node12" class="node">
<title>phases</title>
<polygon fill="#fdebd0" stroke="#e67e22" stroke-width="1.5" points="576.5,-740.85 451.5,-740.85 451.5,-704.85 582.5,-704.85 582.5,-734.85 576.5,-740.85"/>
<polyline fill="none" stroke="#e67e22" stroke-width="1.5" points="576.5,-740.85 576.5,-734.85 "/>
<polyline fill="none" stroke="#e67e22" stroke-width="1.5" points="582.5,-734.85 576.5,-734.85 "/>
<text text-anchor="middle" x="517" y="-726.05" font-family="Helvetica,Arial,sans-serif" font-size="11.00">Random phases φ1, φ2</text>
<text text-anchor="middle" x="517" y="-714.05" font-family="Helvetica,Arial,sans-serif" font-size="11.00">rng.uniform(0, 2π)</text>
</g>
<!-- phases&#45;&gt;h1 -->
<g id="edge10" class="edge">
<title>phases&#45;&gt;h1</title>
<path fill="none" stroke="#555555" stroke-width="1.2" stroke-dasharray="5,2" d="M536.06,-704.71C553.01,-689.46 578.34,-666.68 599.63,-647.53"/>
<polygon fill="#555555" stroke="#555555" stroke-width="1.2" points="602.17,-649.95 607.26,-640.66 597.49,-644.74 602.17,-649.95"/>
</g>
<!-- phases&#45;&gt;h2 -->
<g id="edge11" class="edge">
<title>phases&#45;&gt;h2</title>
<path fill="none" stroke="#555555" stroke-width="1.2" stroke-dasharray="5,2" d="M497.94,-704.71C480.99,-689.46 455.66,-666.68 434.37,-647.53"/>
<polygon fill="#555555" stroke="#555555" stroke-width="1.2" points="436.51,-644.74 426.74,-640.66 431.83,-649.95 436.51,-644.74"/>
</g>
</g>
</svg>
