<?xml version="1.0" encoding="UTF-8" standalone="no"?>
<!DOCTYPE svg PUBLIC "-//W3C//DTD SVG 1.1//EN"
 "http://www.w3.org/Graphics/SVG/1.1/DTD/svg11.dtd">
<!-- Generated by graphviz version 2.43.0 (0)
 -->
<!-- Title: G Pages: 1 -->
<svg width="233pt" height="283pt"
 viewBox="0.00 0.00 232.88 283.00" xmlns="http://www.w3.org/2000/svg" xmlns:xlink="http://www.w3.org/1999/xlink">
<g id="graph0" class="graph" transform="scale(1 1) rotate(0) translate(4 279)">
<title>G</title>
<polygon fill="white" stroke="transparent" points="-4,4 -4,-279 228.88,-279 228.88,4 -4,4"/>
<text text-anchor="middle" x="112.44" y="-7.8" font-family="Times,serif" font-size="14.00">Mesh Decimation &amp; Smoothing</text>
<!-- Raw Tube (High Poly) -->
<g id="node1" class="node">
<title>Raw Tube (High Poly)</title>
<ellipse fill="none" stroke="black" cx="112.44" cy="-257" rx="90.98" ry="18"/>
<text text-anchor="middle" x="112.44" y="-253.3" font-family="Times,serif" font-size="14.00">Raw Tube (High Poly)</text>
</g>
<!-- Decimate (Reduction factor) -->
<g id="node2" class="node">
<title>Decimate (Reduction factor)</title>
<ellipse fill="none" stroke="black" cx="112.44" cy="-185" rx="112.38" ry="18"/>
<text text-anchor="middle" x="112.44" y="-181.3" font-family="Times,serif" font-size="14.00">Decimate (Reduction factor)</text>
</g>
<!-- Raw Tube (High Poly)&#45;&gt;Decimate (Reduction factor) -->
<g id="edge1" class="edge">
<title>Raw Tube (High Poly)&#45;&gt;Decimate (Reduction factor)</title>
<path fill="none" stroke="black" d="M112.44,-238.7C112.44,-230.98 112.44,-221.71 112.44,-213.11"/>
<polygon fill="black" stroke="black" points="115.94,-213.1 112.44,-203.1 108.94,-213.1 115.94,-213.1"/>
</g>
<!-- Taubin Smoothing -->
<g id="node3" class="node">
<title>Taubin Smoothing</title>
<ellipse fill="none" stroke="black" cx="112.44" cy="-113" rx="77.19" ry="18"/>
<text text-anchor="middle" x="112.44" y="-109.3" font-family="Times,serif" font-size="14.00">Taubin Smoothing</text>
</g>
<!-- Decimate (Reduction factor)&#45;&gt;Taubin Smoothing -->
<g id="edge2" class="edge">
<title>Decimate (Reduction factor)&#45;&gt;Taubin Smoothing</title>
<path fill="none" stroke="black" d="M112.44,-166.7C112.44,-158.98 112.44,-149.71 112.44,-141.11"/>
<polygon fill="black" stroke="black" points="115.94,-141.1 112.44,-131.1 108.94,-141.1 115.94,-141.1"/>
</g>
<!-- Recalculate Normals -->
<g id="node4" class="node">
<title>Recalculate Normals</title>
<ellipse fill="none" stroke="black" cx="112.44" cy="-41" rx="85.29" ry="18"/>
<text text-anchor="middle" x="112.44" y="-37.3" font-family="Times,serif" font-size="14.00">Recalculate Normals</text>
</g>
<!-- Taubin Smoothing&#45;&gt;Recalculate Normals -->
<g id="edge3" class="edge">
<title>Taubin Smoothing&#45;&gt;Recalculate Normals</title>
<path fill="none" stroke="black" d="M112.44,-94.7C112.44,-86.98 112.44,-77.71 112.44,-69.11"/>
<polygon fill="black" stroke="black" points="115.94,-69.1 112.44,-59.1 108.94,-69.1 115.94,-69.1"/>
</g>
</g>
</svg>
