<?xml version="1.0" encoding="UTF-8" standalone="no"?>
<!DOCTYPE svg PUBLIC "-//W3C//DTD SVG 1.1//EN"
 "http://www.w3.org/Graphics/SVG/1.1/DTD/svg11.dtd">
<!-- Generated by graphviz version 2.43.0 (0)
 -->
<!-- Title: G Pages: 1 -->
<svg width="198pt" height="283pt"
 viewBox="0.00 0.00 197.78 283.00" xmlns="http://www.w3.org/2000/svg" xmlns:xlink="http://www.w3.org/1999/xlink">
<g id="graph0" class="graph" transform="scale(1 1) rotate(0) translate(4 279)">
<title>G</title>
<polygon fill="white" stroke="transparent" points="-4,4 -4,-279 193.78,-279 193.78,4 -4,4"/>
<text text-anchor="middle" x="94.89" y="-7.8" font-family="Times,serif" font-size="14.00">PBR Material Pipeline</text>
<!-- PolyData -->
<g id="node1" class="node">
<title>PolyData</title>
<ellipse fill="none" stroke="black" cx="94.89" cy="-257" rx="43.59" ry="18"/>
<text text-anchor="middle" x="94.89" y="-253.3" font-family="Times,serif" font-size="14.00">PolyData</text>
</g>
<!-- Apply Color (lightblue) -->
<g id="node2" class="node">
<title>Apply Color (lightblue)</title>
<ellipse fill="none" stroke="black" cx="94.89" cy="-185" rx="94.78" ry="18"/>
<text text-anchor="middle" x="94.89" y="-181.3" font-family="Times,serif" font-size="14.00">Apply Color (lightblue)</text>
</g>
<!-- PolyData&#45;&gt;Apply Color (lightblue) -->
<g id="edge1" class="edge">
<title>PolyData&#45;&gt;Apply Color (lightblue)</title>
<path fill="none" stroke="black" d="M94.89,-238.7C94.89,-230.98 94.89,-221.71 94.89,-213.11"/>
<polygon fill="black" stroke="black" points="98.39,-213.1 94.89,-203.1 91.39,-213.1 98.39,-213.1"/>
</g>
<!-- Specular Highlight -->
<g id="node3" class="node">
<title>Specular Highlight</title>
<ellipse fill="none" stroke="black" cx="94.89" cy="-113" rx="77.19" ry="18"/>
<text text-anchor="middle" x="94.89" y="-109.3" font-family="Times,serif" font-size="14.00">Specular Highlight</text>
</g>
<!-- Apply Color (lightblue)&#45;&gt;Specular Highlight -->
<g id="edge2" class="edge">
<title>Apply Color (lightblue)&#45;&gt;Specular Highlight</title>
<path fill="none" stroke="black" d="M94.89,-166.7C94.89,-158.98 94.89,-149.71 94.89,-141.11"/>
<polygon fill="black" stroke="black" points="98.39,-141.1 94.89,-131.1 91.39,-141.1 98.39,-141.1"/>
</g>
<!-- Metallic roughness -->
<g id="node4" class="node">
<title>Metallic roughness</title>
<ellipse fill="none" stroke="black" cx="94.89" cy="-41" rx="78.79" ry="18"/>
<text text-anchor="middle" x="94.89" y="-37.3" font-family="Times,serif" font-size="14.00">Metallic roughness</text>
</g>
<!-- Specular Highlight&#45;&gt;Metallic roughness -->
<g id="edge3" class="edge">
<title>Specular Highlight&#45;&gt;Metallic roughness</title>
<path fill="none" stroke="black" d="M94.89,-94.7C94.89,-86.98 94.89,-77.71 94.89,-69.11"/>
<polygon fill="black" stroke="black" points="98.39,-69.1 94.89,-59.1 91.39,-69.1 98.39,-69.1"/>
</g>
</g>
</svg>
