<?xml version="1.0" encoding="UTF-8" standalone="no"?>
<!DOCTYPE svg PUBLIC "-//W3C//DTD SVG 1.1//EN"
 "http://www.w3.org/Graphics/SVG/1.1/DTD/svg11.dtd">
<!-- Generated by graphviz version 2.43.0 (0)
 -->
<!-- Title: G Pages: 1 -->
<svg width="2511pt" height="362pt"
 viewBox="0.00 0.00 2511.01 361.60" xmlns="http://www.w3.org/2000/svg" xmlns:xlink="http://www.w3.org/1999/xlink">
<g id="graph0" class="graph" transform="scale(1 1) rotate(0) translate(28.8 332.8)">
<title>G</title>
<polygon fill="#ffffff" stroke="transparent" points="-28.8,28.8 -28.8,-332.8 2482.21,-332.8 2482.21,28.8 -28.8,28.8"/>
<text text-anchor="middle" x="1226.71" y="-288.8" font-family="Helvetica,Arial,sans-serif" font-size="14.00">Tube Surface: Centerline to Geometry</text>
<g id="clust1" class="cluster">
<title>cluster_tan</title>
<path fill="#eafaf1" stroke="#27ae60" d="M20,-190C20,-190 562.81,-190 562.81,-190 568.81,-190 574.81,-196 574.81,-202 574.81,-202 574.81,-261 574.81,-261 574.81,-267 568.81,-273 562.81,-273 562.81,-273 20,-273 20,-273 14,-273 8,-267 8,-261 8,-261 8,-202 8,-202 8,-196 14,-190 20,-190"/>
<text text-anchor="middle" x="291.41" y="-259.4" font-family="Helvetica,Arial,sans-serif" font-size="12.00">Centerline Tangent</text>
</g>
<g id="clust2" class="cluster">
<title>cluster_frame</title>
<path fill="#eafaf1" stroke="#27ae60" d="M449.26,-99C449.26,-99 1177.33,-99 1177.33,-99 1183.33,-99 1189.33,-105 1189.33,-111 1189.33,-111 1189.33,-170 1189.33,-170 1189.33,-176 1183.33,-182 1177.33,-182 1177.33,-182 449.26,-182 449.26,-182 443.26,-182 437.26,-176 437.26,-170 437.26,-170 437.26,-111 437.26,-111 437.26,-105 443.26,-99 449.26,-99"/>
<text text-anchor="middle" x="813.3" y="-168.4" font-family="Helvetica,Arial,sans-serif" font-size="12.00">Frenet&#45;Serret Frame</text>
</g>
<g id="clust3" class="cluster">
<title>cluster_circle</title>
<path fill="#eafaf1" stroke="#27ae60" d="M873.16,-8C873.16,-8 1621.76,-8 1621.76,-8 1627.76,-8 1633.76,-14 1633.76,-20 1633.76,-20 1633.76,-79 1633.76,-79 1633.76,-85 1627.76,-91 1621.76,-91 1621.76,-91 873.16,-91 873.16,-91 867.16,-91 861.16,-85 861.16,-79 861.16,-79 861.16,-20 861.16,-20 861.16,-14 867.16,-8 873.16,-8"/>
<text text-anchor="middle" x="1247.46" y="-77.4" font-family="Helvetica,Arial,sans-serif" font-size="12.00">Cross&#45;Section Circle</text>
</g>
<g id="clust4" class="cluster">
<title>cluster_faces</title>
<path fill="#eafaf1" stroke="#27ae60" d="M1723.76,-8C1723.76,-8 2433.41,-8 2433.41,-8 2439.41,-8 2445.41,-14 2445.41,-20 2445.41,-20 2445.41,-79 2445.41,-79 2445.41,-85 2439.41,-91 2433.41,-91 2433.41,-91 1723.76,-91 1723.76,-91 1717.76,-91 1711.76,-85 1711.76,-79 1711.76,-79 1711.76,-20 1711.76,-20 1711.76,-14 1717.76,-8 1723.76,-8"/>
<text text-anchor="middle" x="2078.59" y="-77.4" font-family="Helvetica,Arial,sans-serif" font-size="12.00">Face Generation</text>
</g>
<!-- t1 -->
<g id="node1" class="node">
<title>t1</title>
<ellipse fill="#a9dfbf" stroke="#27ae60" stroke-width="1.5" cx="83.95" cy="-221" rx="67.9" ry="18"/>
<text text-anchor="middle" x="83.95" y="-218.2" font-family="Helvetica,Arial,sans-serif" font-size="11.00">Centerline point P(t)</text>
</g>
<!-- t2 -->
<g id="node2" class="node">
<title>t2</title>
<ellipse fill="#a9dfbf" stroke="#27ae60" stroke-width="1.5" cx="290.81" cy="-221" rx="79.81" ry="22.76"/>
<text text-anchor="middle" x="290.81" y="-224.2" font-family="Helvetica,Arial,sans-serif" font-size="11.00">Finite difference</text>
<text text-anchor="middle" x="290.81" y="-212.2" font-family="Helvetica,Arial,sans-serif" font-size="11.00">dP/dt ≈ P(t+1) &#45; P(t)</text>
</g>
<!-- t1&#45;&gt;t2 -->
<g id="edge1" class="edge">
<title>t1&#45;&gt;t2</title>
<path fill="none" stroke="#555555" stroke-width="1.2" d="M152.03,-221C167.59,-221 184.38,-221 200.72,-221"/>
<polygon fill="#555555" stroke="#555555" stroke-width="1.2" points="200.82,-224.5 210.82,-221 200.82,-217.5 200.82,-224.5"/>
</g>
<!-- t3 -->
<g id="node3" class="node">
<title>t3</title>
<ellipse fill="#a9dfbf" stroke="#27ae60" stroke-width="1.5" cx="498.26" cy="-218" rx="68.61" ry="18"/>
<text text-anchor="middle" x="498.26" y="-215.2" font-family="Helvetica,Arial,sans-serif" font-size="11.00">Normalize tangent T</text>
</g>
<!-- t2&#45;&gt;t3 -->
<g id="edge2" class="edge">
<title>t2&#45;&gt;t3</title>
<path fill="none" stroke="#555555" stroke-width="1.2" d="M370.65,-219.85C386.62,-219.62 403.4,-219.37 419.34,-219.14"/>
<polygon fill="#555555" stroke="#555555" stroke-width="1.2" points="419.72,-222.63 429.67,-218.99 419.62,-215.63 419.72,-222.63"/>
</g>
<!-- f2 -->
<g id="node5" class="node">
<title>f2</title>
<ellipse fill="#a9dfbf" stroke="#27ae60" stroke-width="1.5" cx="742.99" cy="-130" rx="67.35" ry="22.76"/>
<text text-anchor="middle" x="742.99" y="-133.2" font-family="Helvetica,Arial,sans-serif" font-size="11.00">N = up × T</text>
<text text-anchor="middle" x="742.99" y="-121.2" font-family="Helvetica,Arial,sans-serif" font-size="11.00">(surface normal)</text>
</g>
<!-- t3&#45;&gt;f2 -->
<g id="edge12" class="edge">
<title>t3&#45;&gt;f2</title>
<path fill="none" stroke="#555555" stroke-width="1.2" d="M540.89,-203.87C551.93,-200.07 563.84,-195.92 574.81,-192 612.88,-178.39 655.62,-162.53 688.36,-150.26"/>
<polygon fill="#555555" stroke="#555555" stroke-width="1.2" points="689.61,-153.53 697.74,-146.73 687.15,-146.97 689.61,-153.53"/>
<text text-anchor="middle" x="621.31" y="-185.8" font-family="Helvetica,Arial,sans-serif" font-size="9.00">per spline pt</text>
</g>
<!-- f1 -->
<g id="node4" class="node">
<title>f1</title>
<polygon fill="#d5f5e3" stroke="#27ae60" stroke-width="1.5" points="545.26,-148 445.26,-148 445.26,-112 551.26,-112 551.26,-142 545.26,-148"/>
<polyline fill="none" stroke="#27ae60" stroke-width="1.5" points="545.26,-148 545.26,-142 "/>
<polyline fill="none" stroke="#27ae60" stroke-width="1.5" points="551.26,-142 545.26,-142 "/>
<text text-anchor="middle" x="498.26" y="-127.2" font-family="Helvetica,Arial,sans-serif" font-size="11.00">Arbitrary up&#45;vector</text>
</g>
<!-- f1&#45;&gt;f2 -->
<g id="edge3" class="edge">
<title>f1&#45;&gt;f2</title>
<path fill="none" stroke="#555555" stroke-width="1.2" d="M551.33,-130C584.56,-130 628.22,-130 665.37,-130"/>
<polygon fill="#555555" stroke="#555555" stroke-width="1.2" points="665.67,-133.5 675.67,-130 665.67,-126.5 665.67,-133.5"/>
</g>
<!-- f3 -->
<g id="node6" class="node">
<title>f3</title>
<ellipse fill="#a9dfbf" stroke="#27ae60" stroke-width="1.5" cx="917.16" cy="-130" rx="45.92" ry="22.76"/>
<text text-anchor="middle" x="917.16" y="-133.2" font-family="Helvetica,Arial,sans-serif" font-size="11.00">B = T × N</text>
<text text-anchor="middle" x="917.16" y="-121.2" font-family="Helvetica,Arial,sans-serif" font-size="11.00">(binormal)</text>
</g>
<!-- f2&#45;&gt;f3 -->
<g id="edge4" class="edge">
<title>f2&#45;&gt;f3</title>
<path fill="none" stroke="#555555" stroke-width="1.2" d="M810.56,-130C827.17,-130 844.8,-130 860.81,-130"/>
<polygon fill="#555555" stroke="#555555" stroke-width="1.2" points="861.06,-133.5 871.06,-130 861.06,-126.5 861.06,-133.5"/>
</g>
<!-- vtk -->
<g id="node7" class="node">
<title>vtk</title>
<polygon fill="#d5f5e3" stroke="#27ae60" stroke-width="1.5" points="1175.33,-152 1059.33,-152 1059.33,-108 1181.33,-108 1181.33,-146 1175.33,-152"/>
<polyline fill="none" stroke="#27ae60" stroke-width="1.5" points="1175.33,-152 1175.33,-146 "/>
<polyline fill="none" stroke="#27ae60" stroke-width="1.5" points="1181.33,-146 1175.33,-146 "/>
<text text-anchor="middle" x="1120.33" y="-139.2" font-family="Helvetica,Arial,sans-serif" font-size="11.00">VTK computes Frenet</text>
<text text-anchor="middle" x="1120.33" y="-127.2" font-family="Helvetica,Arial,sans-serif" font-size="11.00">frame automatically</text>
<text text-anchor="middle" x="1120.33" y="-115.2" font-family="Helvetica,Arial,sans-serif" font-size="11.00">via vtkTubeFilter</text>
</g>
<!-- f3&#45;&gt;vtk -->
<g id="edge5" class="edge">
<title>f3&#45;&gt;vtk</title>
<path fill="none" stroke="#555555" stroke-width="1.2" stroke-dasharray="5,2" d="M963.31,-130C988.48,-130 1020.39,-130 1048.79,-130"/>
<polygon fill="#555555" stroke="#555555" stroke-width="1.2" points="1049.07,-133.5 1059.07,-130 1049.07,-126.5 1049.07,-133.5"/>
</g>
<!-- cc2 -->
<g id="node9" class="node">
<title>cc2</title>
<ellipse fill="#a9dfbf" stroke="#27ae60" stroke-width="1.5" cx="1120.33" cy="-39" rx="96.33" ry="22.76"/>
<text text-anchor="middle" x="1120.33" y="-42.2" font-family="Helvetica,Arial,sans-serif" font-size="11.00">cos(θ)×N + sin(θ)×B</text>
<text text-anchor="middle" x="1120.33" y="-30.2" font-family="Helvetica,Arial,sans-serif" font-size="11.00">(unit circle in local frame)</text>
</g>
<!-- f3&#45;&gt;cc2 -->
<g id="edge13" class="edge">
<title>f3&#45;&gt;cc2</title>
<path fill="none" stroke="#555555" stroke-width="1.2" d="M951.83,-114.77C982.84,-100.74 1029.38,-79.69 1065.53,-63.34"/>
<polygon fill="#555555" stroke="#555555" stroke-width="1.2" points="1067.29,-66.38 1074.96,-59.07 1064.41,-60 1067.29,-66.38"/>
</g>
<!-- cc1 -->
<g id="node8" class="node">
<title>cc1</title>
<polygon fill="#a9dfbf" stroke="#27ae60" stroke-width="1.5" points="965.16,-57 881.16,-57 881.16,-61 869.16,-61 869.16,-21 965.16,-21 965.16,-57"/>
<polyline fill="none" stroke="#27ae60" stroke-width="1.5" points="869.16,-57 881.16,-57 "/>
<text text-anchor="middle" x="917.16" y="-42.2" font-family="Helvetica,Arial,sans-serif" font-size="11.00">n_sides = 28–64</text>
<text text-anchor="middle" x="917.16" y="-30.2" font-family="Helvetica,Arial,sans-serif" font-size="11.00">(polygon facets)</text>
</g>
<!-- cc1&#45;&gt;cc2 -->
<g id="edge6" class="edge">
<title>cc1&#45;&gt;cc2</title>
<path fill="none" stroke="#555555" stroke-width="1.2" d="M965.33,-39C979.99,-39 996.78,-39 1013.76,-39"/>
<polygon fill="#555555" stroke="#555555" stroke-width="1.2" points="1013.77,-42.5 1023.77,-39 1013.77,-35.5 1013.77,-42.5"/>
</g>
<!-- cc3 -->
<g id="node10" class="node">
<title>cc3</title>
<ellipse fill="#a9dfbf" stroke="#27ae60" stroke-width="1.5" cx="1356.08" cy="-39" rx="80.66" ry="18"/>
<text text-anchor="middle" x="1356.08" y="-36.2" font-family="Helvetica,Arial,sans-serif" font-size="11.00">Scale by radius_profile[i]</text>
</g>
<!-- cc2&#45;&gt;cc3 -->
<g id="edge7" class="edge">
<title>cc2&#45;&gt;cc3</title>
<path fill="none" stroke="#555555" stroke-width="1.2" d="M1216.74,-39C1232.69,-39 1249.19,-39 1265,-39"/>
<polygon fill="#555555" stroke="#555555" stroke-width="1.2" points="1265.27,-42.5 1275.27,-39 1265.27,-35.5 1265.27,-42.5"/>
</g>
<!-- cc4 -->
<g id="node11" class="node">
<title>cc4</title>
<ellipse fill="#a9dfbf" stroke="#27ae60" stroke-width="1.5" cx="1560.71" cy="-39" rx="65.11" ry="22.76"/>
<text text-anchor="middle" x="1560.71" y="-42.2" font-family="Helvetica,Arial,sans-serif" font-size="11.00">Circle vertices</text>
<text text-anchor="middle" x="1560.71" y="-30.2" font-family="Helvetica,Arial,sans-serif" font-size="11.00">(n_sides points)</text>
</g>
<!-- cc3&#45;&gt;cc4 -->
<g id="edge8" class="edge">
<title>cc3&#45;&gt;cc4</title>
<path fill="none" stroke="#555555" stroke-width="1.2" d="M1436.87,-39C1452.86,-39 1469.6,-39 1485.4,-39"/>
<polygon fill="#555555" stroke="#555555" stroke-width="1.2" points="1485.62,-42.5 1495.62,-39 1485.62,-35.5 1485.62,-42.5"/>
</g>
<!-- fc1 -->
<g id="node12" class="node">
<title>fc1</title>
<ellipse fill="#a9dfbf" stroke="#27ae60" stroke-width="1.5" cx="1801.79" cy="-39" rx="82.05" ry="22.76"/>
<text text-anchor="middle" x="1801.79" y="-42.2" font-family="Helvetica,Arial,sans-serif" font-size="11.00">Connect consecutive</text>
<text text-anchor="middle" x="1801.79" y="-30.2" font-family="Helvetica,Arial,sans-serif" font-size="11.00">circles → quad strips</text>
</g>
<!-- cc4&#45;&gt;fc1 -->
<g id="edge14" class="edge">
<title>cc4&#45;&gt;fc1</title>
<path fill="none" stroke="#555555" stroke-width="1.2" d="M1625.78,-39C1651.4,-39 1681.39,-39 1709.24,-39"/>
<polygon fill="#555555" stroke="#555555" stroke-width="1.2" points="1709.39,-42.5 1719.39,-39 1709.39,-35.5 1709.39,-42.5"/>
<text text-anchor="middle" x="1672.76" y="-41.8" font-family="Helvetica,Arial,sans-serif" font-size="9.00">extruded</text>
</g>
<!-- fc2 -->
<g id="node13" class="node">
<title>fc2</title>
<ellipse fill="#a9dfbf" stroke="#27ae60" stroke-width="1.5" cx="2018.47" cy="-39" rx="75.82" ry="22.76"/>
<text text-anchor="middle" x="2018.47" y="-42.2" font-family="Helvetica,Arial,sans-serif" font-size="11.00">Triangulate quads</text>
<text text-anchor="middle" x="2018.47" y="-30.2" font-family="Helvetica,Arial,sans-serif" font-size="11.00">→ 2 triangles each</text>
</g>
<!-- fc1&#45;&gt;fc2 -->
<g id="edge9" class="edge">
<title>fc1&#45;&gt;fc2</title>
<path fill="none" stroke="#555555" stroke-width="1.2" d="M1883.95,-39C1899.73,-39 1916.31,-39 1932.22,-39"/>
<polygon fill="#555555" stroke="#555555" stroke-width="1.2" points="1932.56,-42.5 1942.56,-39 1932.56,-35.5 1932.56,-42.5"/>
</g>
<!-- fc3 -->
<g id="node14" class="node">
<title>fc3</title>
<ellipse fill="#a9dfbf" stroke="#27ae60" stroke-width="1.5" cx="2216.77" cy="-39" rx="63.78" ry="22.76"/>
<text text-anchor="middle" x="2216.77" y="-42.2" font-family="Helvetica,Arial,sans-serif" font-size="11.00">Cap end disks</text>
<text text-anchor="middle" x="2216.77" y="-30.2" font-family="Helvetica,Arial,sans-serif" font-size="11.00">(capping=True)</text>
</g>
<!-- fc2&#45;&gt;fc3 -->
<g id="edge10" class="edge">
<title>fc2&#45;&gt;fc3</title>
<path fill="none" stroke="#555555" stroke-width="1.2" d="M2094.24,-39C2110.15,-39 2126.93,-39 2142.78,-39"/>
<polygon fill="#555555" stroke="#555555" stroke-width="1.2" points="2143.03,-42.5 2153.03,-39 2143.03,-35.5 2143.03,-42.5"/>
</g>
<!-- fc4 -->
<g id="node15" class="node">
<title>fc4</title>
<path fill="#a9dfbf" stroke="#27ae60" stroke-width="1.5" d="M2437.41,-57C2437.41,-59.21 2415.45,-61 2388.41,-61 2361.37,-61 2339.41,-59.21 2339.41,-57 2339.41,-57 2339.41,-21 2339.41,-21 2339.41,-18.79 2361.37,-17 2388.41,-17 2415.45,-17 2437.41,-18.79 2437.41,-21 2437.41,-21 2437.41,-57 2437.41,-57"/>
<path fill="none" stroke="#27ae60" stroke-width="1.5" d="M2437.41,-57C2437.41,-54.79 2415.45,-53 2388.41,-53 2361.37,-53 2339.41,-54.79 2339.41,-57"/>
<text text-anchor="middle" x="2388.41" y="-42.2" font-family="Helvetica,Arial,sans-serif" font-size="11.00">PolyData surface</text>
<text text-anchor="middle" x="2388.41" y="-30.2" font-family="Helvetica,Arial,sans-serif" font-size="11.00">(watertight tube)</text>
</g>
<!-- fc3&#45;&gt;fc4 -->
<g id="edge11" class="edge">
<title>fc3&#45;&gt;fc4</title>
<path fill="none" stroke="#555555" stroke-width="1.2" d="M2280.46,-39C2296.41,-39 2313.48,-39 2329.19,-39"/>
<polygon fill="#555555" stroke="#555555" stroke-width="1.2" points="2329.3,-42.5 2339.3,-39 2329.3,-35.5 2329.3,-42.5"/>
</g>
</g>
</svg>
