<?xml version="1.0" encoding="UTF-8" standalone="no"?>
<!DOCTYPE svg PUBLIC "-//W3C//DTD SVG 1.1//EN"
 "http://www.w3.org/Graphics/SVG/1.1/DTD/svg11.dtd">
<!-- Generated by graphviz version 2.43.0 (0)
 -->
<!-- Title: G Pages: 1 -->
<svg width="190pt" height="283pt"
 viewBox="0.00 0.00 189.98 283.00" xmlns="http://www.w3.org/2000/svg" xmlns:xlink="http://www.w3.org/1999/xlink">
<g id="graph0" class="graph" transform="scale(1 1) rotate(0) translate(4 279)">
<title>G</title>
<polygon fill="white" stroke="transparent" points="-4,4 -4,-279 185.98,-279 185.98,4 -4,4"/>
<text text-anchor="middle" x="90.99" y="-7.8" font-family="Times,serif" font-size="14.00">Deployment Pipeline</text>
<!-- Install Requirements -->
<g id="node1" class="node">
<title>Install Requirements</title>
<ellipse fill="none" stroke="black" cx="90.99" cy="-257" rx="84.49" ry="18"/>
<text text-anchor="middle" x="90.99" y="-253.3" font-family="Times,serif" font-size="14.00">Install Requirements</text>
</g>
<!-- Generate STLs -->
<g id="node2" class="node">
<title>Generate STLs</title>
<ellipse fill="none" stroke="black" cx="90.99" cy="-185" rx="63.89" ry="18"/>
<text text-anchor="middle" x="90.99" y="-181.3" font-family="Times,serif" font-size="14.00">Generate STLs</text>
</g>
<!-- Install Requirements&#45;&gt;Generate STLs -->
<g id="edge1" class="edge">
<title>Install Requirements&#45;&gt;Generate STLs</title>
<path fill="none" stroke="black" d="M90.99,-238.7C90.99,-230.98 90.99,-221.71 90.99,-213.11"/>
<polygon fill="black" stroke="black" points="94.49,-213.1 90.99,-203.1 87.49,-213.1 94.49,-213.1"/>
</g>
<!-- Quality Check (Tuner) -->
<g id="node3" class="node">
<title>Quality Check (Tuner)</title>
<ellipse fill="none" stroke="black" cx="90.99" cy="-113" rx="90.98" ry="18"/>
<text text-anchor="middle" x="90.99" y="-109.3" font-family="Times,serif" font-size="14.00">Quality Check (Tuner)</text>
</g>
<!-- Generate STLs&#45;&gt;Quality Check (Tuner) -->
<g id="edge2" class="edge">
<title>Generate STLs&#45;&gt;Quality Check (Tuner)</title>
<path fill="none" stroke="black" d="M90.99,-166.7C90.99,-158.98 90.99,-149.71 90.99,-141.11"/>
<polygon fill="black" stroke="black" points="94.49,-141.1 90.99,-131.1 87.49,-141.1 94.49,-141.1"/>
</g>
<!-- 3D Print / WebGL -->
<g id="node4" class="node">
<title>3D Print / WebGL</title>
<ellipse fill="none" stroke="black" cx="90.99" cy="-41" rx="76.09" ry="18"/>
<text text-anchor="middle" x="90.99" y="-37.3" font-family="Times,serif" font-size="14.00">3D Print / WebGL</text>
</g>
<!-- Quality Check (Tuner)&#45;&gt;3D Print / WebGL -->
<g id="edge3" class="edge">
<title>Quality Check (Tuner)&#45;&gt;3D Print / WebGL</title>
<path fill="none" stroke="black" d="M90.99,-94.7C90.99,-86.98 90.99,-77.71 90.99,-69.11"/>
<polygon fill="black" stroke="black" points="94.49,-69.1 90.99,-59.1 87.49,-69.1 94.49,-69.1"/>
</g>
</g>
</svg>
